<svg width="25" height="22" viewBox="0 0 25 22" fill="none" xmlns="http://www.w3.org/2000/svg">
<path fill-rule="evenodd" clip-rule="evenodd" d="M12.9309 21.9064C13.016 21.8674 13.0964 21.8162 13.169 21.753C14.6983 20.4614 16.9822 18.4683 18.2884 17.1499C19.972 15.4512 21.3499 13.8385 22.3756 12.3538C23.7076 10.4246 24.5 8.64509 24.5 7.11646C24.5 3.27717 21.5082 0 17.6396 0C16.3874 0 15.1759 0.658986 14.2044 1.42073C13.5854 1.90609 13.0051 2.4791 12.5 3.07274C11.9949 2.4791 11.4146 1.90609 10.7956 1.42073C9.82409 0.658986 8.61256 0 7.36037 0C3.49178 0 0.5 3.27717 0.5 7.11646C0.5 8.64509 1.2922 10.4244 2.62424 12.3536C3.64991 13.8382 5.02796 15.4512 6.71161 17.1499C8.01779 18.4683 10.3017 20.4614 11.831 21.753C11.9036 21.8162 11.984 21.8674 12.0691 21.9064C12.2054 21.9691 12.3529 22.0001 12.5 22C12.6471 22.0001 12.7946 21.9691 12.9309 21.9064ZM2.49336 7.11646C2.49336 4.1615 4.76238 1.90951 7.36037 1.90951C7.92222 1.90951 8.68565 2.23396 9.53303 2.89837C10.3467 3.53636 11.106 4.38558 11.6509 5.19285C11.691 5.25542 11.739 5.31405 11.7946 5.36726C11.9841 5.5495 12.2399 5.64716 12.5 5.64739C12.6407 5.64752 12.7827 5.61913 12.9161 5.5602C13.0222 5.51366 13.1205 5.44896 13.2054 5.36726C13.261 5.31405 13.309 5.25542 13.3491 5.19285C13.894 4.38558 14.6533 3.53636 15.467 2.89837C16.3143 2.23396 17.0778 1.90951 17.6396 1.90951C20.2376 1.90951 22.5066 4.1615 22.5066 7.11646C22.5066 8.0731 21.9815 9.46317 20.7133 11.3C19.7694 12.6663 18.4719 14.1915 16.8428 15.8351C15.7699 16.9181 13.9583 18.5206 12.5 19.7687C11.0417 18.5206 9.23024 16.9183 8.15734 15.8353C6.52832 14.1917 5.2306 12.6663 4.28668 11.3C3.01846 9.46317 2.49336 8.0731 2.49336 7.11646Z" fill="black"/>
</svg>
