<svg width="30" height="27" viewBox="0 0 30 27" fill="none" xmlns="http://www.w3.org/2000/svg">
<path fill-rule="evenodd" clip-rule="evenodd" d="M21.198 1.66666C24.765 1.66666 27.6668 4.71485 27.6668 8.46047C27.6668 9.83061 26.9402 11.5779 25.5058 13.6541C24.4194 15.2259 22.9424 16.9558 21.1163 18.7984C19.7104 20.2167 18.1411 21.6586 16.4546 23.0831C16.0392 23.4356 15.3351 24.0427 15.0002 24.3333C14.6641 24.0427 13.9611 23.4343 13.5457 23.0831C11.8592 21.6598 10.2911 20.218 8.884 18.7984C7.05672 16.9558 5.58093 15.2259 4.49451 13.6541C3.06015 11.5779 2.3335 9.83061 2.3335 8.46047C2.3335 4.71485 5.23536 1.66666 8.80234 1.66666C10.8036 1.66666 12.7812 2.83276 14.0936 4.78533L15.0002 6.13445L15.9067 4.78533C17.2192 2.83276 19.1967 1.66666 21.198 1.66666Z" fill="black"/>
<path d="M21.198 1.66666C24.765 1.66666 27.6668 4.71485 27.6668 8.46047C27.6668 9.83061 26.9402 11.5779 25.5058 13.6541C24.4194 15.2258 22.9424 16.9558 21.1163 18.7984C19.7104 20.2167 18.1411 21.6586 16.4546 23.0831C16.0392 23.4356 15.3351 24.0427 15.0002 24.3333C14.6641 24.0427 13.9611 23.4343 13.5457 23.0831C11.8592 21.6598 10.2911 20.218 8.884 18.7984C7.05672 16.9558 5.58093 15.2258 4.49451 13.6541C3.06015 11.5779 2.3335 9.83061 2.3335 8.46047C2.3335 4.71485 5.23536 1.66666 8.80234 1.66666C10.8036 1.66666 12.7812 2.83276 14.0936 4.78533L15.0002 6.13445L15.9067 4.78533C17.2192 2.83276 19.1967 1.66666 21.198 1.66666" stroke="black" stroke-width="3"/>
</svg>
