<svg width="33" height="32" viewBox="0 0 33 32" fill="none" xmlns="http://www.w3.org/2000/svg"><g id="ico tab bar / basket"><g id="Group 1"><path id="Union" fill-rule="evenodd" clip-rule="evenodd" d="M12.5761 11C12.9509 8.59883 14.6543 7 16.4998 7C18.3454 7 20.0487 8.59883 20.4235 11H12.5761ZM10.5608 11C10.9606 7.73932 13.2898 5 16.4998 5C19.7098 5 22.039 7.73932 22.4388 11H25.347C26.5641 11 27.499 12.078 27.3269 13.2828L25.6126 25.2828C25.4719 26.2681 24.628 27 23.6327 27H9.36731C8.37201 27 7.52817 26.2681 7.38741 25.2828L5.67313 13.2828C5.501 12.078 6.43592 11 7.65302 11H10.5608ZM7.65302 13H25.347L23.6327 25H9.36731L7.65302 13Z" fill="black"/></g></g></svg>
