<svg xmlns="http://www.w3.org/2000/svg" width="20" height="18" stroke="#d50032" class="svg-inline calendar-icon"><path fill="#000" d="M20 2.2v14.1c0 1-.8 1.7-1.8 1.7H1.8c-1 0-1.8-.7-1.8-1.6V2.2C0 1.3.8 1 1.9 1H6V.5c0-.3.2-.5.5-.5s.5.2.5.5V1h6V.5c0-.3.2-.5.5-.5s.5.2.5.5V1h4.2c1 0 1.8.3 1.8 1.2zm-1 3.1V5L1 5.1v11.2c0 .5.5.7 1 .7h16.2c.5 0 .8-.3.8-.9V5.3zM7.7 9C7.6 9 7 9 7 8.5s.5-.5.6-.5h4.9c.3 0 .5.2.5.5s-.2.5-.5.5H7.7zm-1.2 3c-.3 0-.5-.2-.5-.5s.2-.5.5-.5h7c.3 0 .5.2.5.5s-.2.5-.5.5h-7zM19 4V2.3c0-.3-.2-.3-.5-.3H14v.5c0 .3-.2.5-.5.5s-.5-.2-.5-.5V2H7v.5c0 .3-.2.5-.5.5S6 2.8 6 2.5V2H1.6c-.5 0-.6.1-.6.4V4h18z"/></svg>