<svg width="32" height="32" viewBox="0 0 32 32" fill="none" xmlns="http://www.w3.org/2000/svg">
<path fill-rule="evenodd" clip-rule="evenodd" d="M4 24C4.55228 24 5 24.4477 5 25V27H27V25C27 24.4477 27.4477 24 28 24C28.5523 24 29 24.4477 29 25V28C29 28.5523 28.5523 29 28 29H4C3.44772 29 3 28.5523 3 28V25C3 24.4477 3.44772 24 4 24Z" fill="black"/>
<path fill-rule="evenodd" clip-rule="evenodd" d="M15.9377 3C14.1187 3 12.6441 4.47459 12.6441 6.2936V7.59687H9.36854C8.90899 7.59687 8.51679 7.92911 8.44124 8.38241L6.01302 22.9517C5.91752 23.5247 6.3594 24.0464 6.94032 24.0464H20.7128C20.7354 24.0464 20.7579 24.0456 20.7802 24.044C20.8361 24.0464 20.8933 24.0423 20.9506 24.0309L23.1514 23.5962H24.8356C25.5426 23.5962 26.0864 22.9713 25.9887 22.2711L24.0797 8.59012C24.1109 8.05842 23.6874 7.59687 23.141 7.59687H19.2313V6.2936C19.2313 4.47459 17.7567 3 15.9377 3ZM22.8996 22.1864L21.7824 22.4071L23.2953 13.3297L24.528 22.1643H23.1252C23.0494 22.1643 22.9739 22.1717 22.8996 22.1864ZM9.78516 9.02876H12.6441V9.76782C12.6441 10.1632 12.9646 10.4838 13.36 10.4838C13.7555 10.4838 14.076 10.1632 14.076 9.76782V9.02876H17.7994V9.76782C17.7994 10.1632 18.1199 10.4838 18.5153 10.4838C18.9108 10.4838 19.2313 10.1632 19.2313 9.76782V9.02876H22.5604L20.2962 22.6145H7.52088L9.78516 9.02876ZM14.076 6.2936V7.59687H17.7994V6.2936C17.7994 5.26541 16.9659 4.43189 15.9377 4.43189C14.9095 4.43189 14.076 5.26541 14.076 6.2936Z" fill="black"/>
<path d="M12.6441 7.59687V7.84687H12.8941V7.59687H12.6441ZM8.44124 8.38241L8.68784 8.42351L8.44124 8.38241ZM6.01302 22.9517L6.25962 22.9928L6.01302 22.9517ZM20.7802 24.044L20.7911 23.7942L20.7767 23.7936L20.7624 23.7946L20.7802 24.044ZM20.9506 24.0309L20.9991 24.2762H20.9991L20.9506 24.0309ZM23.1514 23.5962V23.3462H23.1269L23.1029 23.351L23.1514 23.5962ZM25.9887 22.2711L25.7411 22.3056L25.9887 22.2711ZM24.0797 8.59012L23.8301 8.5755L23.8287 8.60019L23.8321 8.62467L24.0797 8.59012ZM19.2313 7.59687H18.9813V7.84687H19.2313V7.59687ZM21.7824 22.4071L21.5358 22.366L21.4764 22.7224L21.8308 22.6523L21.7824 22.4071ZM22.8996 22.1864L22.8511 21.9411L22.8996 22.1864ZM23.2953 13.3297L23.5429 13.2951L23.0487 13.2886L23.2953 13.3297ZM24.528 22.1643V22.4143H24.8153L24.7756 22.1298L24.528 22.1643ZM12.6441 9.02876H12.8941V8.77876H12.6441V9.02876ZM9.78516 9.02876V8.77876H9.57338L9.53856 8.98766L9.78516 9.02876ZM14.076 9.02876V8.77876H13.826V9.02876H14.076ZM17.7994 9.02876H18.0494V8.77876H17.7994V9.02876ZM19.2313 9.02876V8.77876H18.9813V9.02876H19.2313ZM22.5604 9.02876L22.807 9.06986L22.8556 8.77876H22.5604V9.02876ZM20.2962 22.6145V22.8645H20.5079L20.5428 22.6556L20.2962 22.6145ZM7.52088 22.6145L7.27428 22.5734L7.22576 22.8645H7.52088V22.6145ZM14.076 7.59687H13.826V7.84687H14.076V7.59687ZM17.7994 7.59687V7.84687H18.0494V7.59687H17.7994ZM12.8941 6.2936C12.8941 4.61266 14.2568 3.25 15.9377 3.25V2.75C13.9806 2.75 12.3941 4.33652 12.3941 6.2936H12.8941ZM12.8941 7.59687V6.2936H12.3941V7.59687H12.8941ZM9.36854 7.84687H12.6441V7.34687H9.36854V7.84687ZM8.68784 8.42351C8.7433 8.09075 9.0312 7.84687 9.36854 7.84687V7.34687C8.78678 7.34687 8.29029 7.76746 8.19465 8.34131L8.68784 8.42351ZM6.25962 22.9928L8.68784 8.42351L8.19465 8.34131L5.76643 22.9106L6.25962 22.9928ZM6.94032 23.7964C6.51389 23.7964 6.18952 23.4135 6.25962 22.9928L5.76643 22.9106C5.64553 23.636 6.20492 24.2964 6.94032 24.2964V23.7964ZM20.7128 23.7964H6.94032V24.2964H20.7128V23.7964ZM20.7624 23.7946C20.7461 23.7958 20.7295 23.7964 20.7128 23.7964V24.2964C20.7414 24.2964 20.7698 24.2954 20.798 24.2933L20.7624 23.7946ZM20.9022 23.7857C20.8645 23.7931 20.8273 23.7958 20.7911 23.7942L20.7694 24.2937C20.845 24.297 20.922 24.2914 20.9991 24.2762L20.9022 23.7857ZM23.1029 23.351L20.9022 23.7857L20.9991 24.2762L23.1998 23.8415L23.1029 23.351ZM24.8356 23.3462H23.1514V23.8462H24.8356V23.3462ZM25.7411 22.3056C25.8178 22.8555 25.3908 23.3462 24.8356 23.3462V23.8462C25.6944 23.8462 26.355 23.0871 26.2363 22.2365L25.7411 22.3056ZM23.8321 8.62467L25.7411 22.3056L26.2363 22.2365L24.3273 8.55558L23.8321 8.62467ZM23.141 7.84687C23.5419 7.84687 23.853 8.1856 23.8301 8.5755L24.3293 8.60475C24.3687 7.93123 23.833 7.34687 23.141 7.34687V7.84687ZM19.2313 7.84687H23.141V7.34687H19.2313V7.84687ZM18.9813 6.2936V7.59687H19.4813V6.2936H18.9813ZM15.9377 3.25C17.6186 3.25 18.9813 4.61266 18.9813 6.2936H19.4813C19.4813 4.33652 17.8948 2.75 15.9377 2.75V3.25ZM21.8308 22.6523L22.948 22.4317L22.8511 21.9411L21.7339 22.1618L21.8308 22.6523ZM23.0487 13.2886L21.5358 22.366L22.029 22.4482L23.5419 13.3708L23.0487 13.2886ZM24.7756 22.1298L23.5429 13.2951L23.0477 13.3642L24.2804 22.1989L24.7756 22.1298ZM23.1252 22.4143H24.528V21.9143H23.1252V22.4143ZM22.948 22.4317C23.0064 22.4201 23.0657 22.4143 23.1252 22.4143V21.9143C23.0332 21.9143 22.9414 21.9233 22.8511 21.9411L22.948 22.4317ZM12.6441 8.77876H9.78516V9.27876H12.6441V8.77876ZM12.8941 9.76782V9.02876H12.3941V9.76782H12.8941ZM13.36 10.2338C13.1027 10.2338 12.8941 10.0252 12.8941 9.76782H12.3941C12.3941 10.3013 12.8266 10.7338 13.36 10.7338V10.2338ZM13.826 9.76782C13.826 10.0252 13.6174 10.2338 13.36 10.2338V10.7338C13.8935 10.7338 14.326 10.3013 14.326 9.76782H13.826ZM13.826 9.02876V9.76782H14.326V9.02876H13.826ZM17.7994 8.77876H14.076V9.27876H17.7994V8.77876ZM18.0494 9.76782V9.02876H17.5494V9.76782H18.0494ZM18.5153 10.2338C18.258 10.2338 18.0494 10.0252 18.0494 9.76782H17.5494C17.5494 10.3013 17.9819 10.7338 18.5153 10.7338V10.2338ZM18.9813 9.76782C18.9813 10.0252 18.7727 10.2338 18.5153 10.2338V10.7338C19.0488 10.7338 19.4813 10.3013 19.4813 9.76782H18.9813ZM18.9813 9.02876V9.76782H19.4813V9.02876H18.9813ZM22.5604 8.77876H19.2313V9.27876H22.5604V8.77876ZM20.5428 22.6556L22.807 9.06986L22.3138 8.98766L20.0496 22.5734L20.5428 22.6556ZM7.52088 22.8645H20.2962V22.3645H7.52088V22.8645ZM9.53856 8.98766L7.27428 22.5734L7.76747 22.6556L10.0318 9.06986L9.53856 8.98766ZM14.326 7.59687V6.2936H13.826V7.59687H14.326ZM17.7994 7.34687H14.076V7.84687H17.7994V7.34687ZM17.5494 6.2936V7.59687H18.0494V6.2936H17.5494ZM15.9377 4.68189C16.8278 4.68189 17.5494 5.40348 17.5494 6.2936H18.0494C18.0494 5.12733 17.104 4.18189 15.9377 4.18189V4.68189ZM14.326 6.2936C14.326 5.40348 15.0476 4.68189 15.9377 4.68189V4.18189C14.7714 4.18189 13.826 5.12733 13.826 6.2936H14.326Z" fill="black"/>
</svg>
