<svg width="32" height="32" viewBox="0 0 32 32" fill="none" xmlns="http://www.w3.org/2000/svg">
<rect y="5" width="32" height="22" rx="2" fill="black"/>
<path fill-rule="evenodd" clip-rule="evenodd" d="M16.2291 20.6864C15.1396 21.6265 13.7264 22.194 12.1822 22.194C8.7366 22.194 5.94336 19.3684 5.94336 15.8827C5.94336 12.3971 8.7366 9.57144 12.1822 9.57144C13.7265 9.57144 15.1396 10.139 16.2291 11.0791C17.3185 10.139 18.7317 9.57146 20.2759 9.57146C23.7216 9.57146 26.5148 12.3971 26.5148 15.8828C26.5148 19.3684 23.7216 22.1941 20.2759 22.1941C18.7317 22.1941 17.3185 21.6265 16.2291 20.6864Z" fill="#ED0006"/>
<path fill-rule="evenodd" clip-rule="evenodd" d="M16.2285 20.6864C17.5699 19.5288 18.4205 17.8063 18.4205 15.8828C18.4205 13.9593 17.5699 12.2368 16.2285 11.0792C17.318 10.1391 18.7312 9.5715 20.2754 9.5715C23.721 9.5715 26.5143 12.3972 26.5143 15.8828C26.5143 19.3684 23.721 22.1941 20.2754 22.1941C18.7312 22.1941 17.318 21.6265 16.2285 20.6864Z" fill="#F9A000"/>
<path fill-rule="evenodd" clip-rule="evenodd" d="M16.2291 20.6863C17.5705 19.5287 18.4211 17.8062 18.4211 15.8827C18.4211 13.9593 17.5705 12.2368 16.2291 11.0792C14.8877 12.2368 14.0371 13.9593 14.0371 15.8827C14.0371 17.8062 14.8877 19.5287 16.2291 20.6863Z" fill="#FF5E00"/>
</svg>
