<svg width="32" height="32" viewBox="0 0 32 32" fill="none" xmlns="http://www.w3.org/2000/svg">
<path fill-rule="evenodd" clip-rule="evenodd" d="M30 6H2C1.44771 6 1 6.44772 1 7V25C1 25.5523 1.44772 26 2 26H30C30.5523 26 31 25.5523 31 25V7C31 6.44772 30.5523 6 30 6ZM2 5C0.895431 5 0 5.89543 0 7V25C0 26.1046 0.895431 27 2 27H30C31.1046 27 32 26.1046 32 25V7C32 5.89543 31.1046 5 30 5H2Z" fill="#D7D7D7"/>
<path d="M6.91008 13.0002H5.02384C4.89477 13.0002 4.78499 13.0945 4.76486 13.2227L4.00198 18.0878C3.98681 18.1838 4.06073 18.2703 4.15753 18.2703H5.05804C5.18712 18.2703 5.29689 18.176 5.31703 18.0475L5.52278 16.7354C5.54264 16.6069 5.65268 16.5126 5.78148 16.5126H6.3786C7.62111 16.5126 8.33821 15.9078 8.52548 14.7094C8.60988 14.185 8.52907 13.7731 8.28498 13.4846C8.01689 13.1677 7.5414 13.0002 6.91008 13.0002ZM7.1277 14.7771C7.02454 15.4578 6.50741 15.4578 6.00737 15.4578H5.72274L5.92242 14.1864C5.93428 14.1096 6.00047 14.053 6.0777 14.053H6.20816C6.54878 14.053 6.87009 14.053 7.03613 14.2483C7.13514 14.3648 7.16548 14.5379 7.1277 14.7771Z" fill="#253B80"/>
<path d="M12.5476 14.7551H11.6444C11.5674 14.7551 11.5009 14.8117 11.4891 14.8885L11.4491 15.1426L11.3859 15.0505C11.1904 14.7651 10.7543 14.6696 10.3191 14.6696C9.32097 14.6696 8.46845 15.43 8.30241 16.4967C8.21608 17.0288 8.33882 17.5376 8.6389 17.8924C8.91415 18.2187 9.308 18.3546 9.7766 18.3546C10.5808 18.3546 11.0268 17.8344 11.0268 17.8344L10.9866 18.0869C10.9714 18.1834 11.0453 18.27 11.1416 18.27H11.9552C12.0845 18.27 12.1938 18.1757 12.2142 18.0472L12.7024 14.9376C12.7178 14.8419 12.6442 14.7551 12.5476 14.7551ZM11.2886 16.5233C11.2014 17.0424 10.7918 17.3908 10.2695 17.3908C10.0072 17.3908 9.79756 17.3062 9.66297 17.1459C9.52948 16.9866 9.47873 16.76 9.5212 16.5075C9.60256 15.9929 10.019 15.6331 10.5334 15.6331C10.7899 15.6331 10.9984 15.7188 11.1358 15.8806C11.2734 16.044 11.328 16.272 11.2886 16.5233Z" fill="#253B80"/>
<path d="M17.359 14.7553H16.4513C16.3647 14.7553 16.2833 14.7986 16.2342 14.871L14.9823 16.7258L14.4517 14.9434C14.4183 14.8319 14.316 14.7553 14.2001 14.7553H13.3082C13.1998 14.7553 13.1245 14.8619 13.159 14.9645L14.1588 17.9157L13.2188 19.2503C13.1449 19.3555 13.2194 19.5 13.3471 19.5H14.2537C14.3397 19.5 14.4202 19.4579 14.4691 19.3868L17.488 15.0036C17.5603 14.8988 17.4861 14.7553 17.359 14.7553Z" fill="#253B80"/>
<path d="M20.3632 13.0001H18.4767C18.3479 13.0001 18.2381 13.0944 18.218 13.2226L17.4551 18.0877C17.4399 18.1837 17.5139 18.2702 17.6101 18.2702H18.5782C18.6681 18.2702 18.7451 18.2042 18.7591 18.1143L18.9756 16.7353C18.9955 16.6068 19.1055 16.5125 19.2343 16.5125H19.8312C21.074 16.5125 21.7908 15.9077 21.9783 14.7093C22.063 14.1849 21.9816 13.773 21.7376 13.4845C21.4697 13.1677 20.9945 13.0001 20.3632 13.0001ZM20.5808 14.777C20.4779 15.4577 19.9608 15.4577 19.4605 15.4577H19.1761L19.3761 14.1863C19.388 14.1095 19.4536 14.0529 19.5311 14.0529H19.6616C20.0019 14.0529 20.3235 14.0529 20.4895 14.2482C20.5885 14.3647 20.6186 14.5378 20.5808 14.777Z" fill="#179BD7"/>
<path d="M26.0015 14.7551H25.0988C25.0213 14.7551 24.9554 14.8117 24.9438 14.8885L24.9038 15.1426L24.8404 15.0505C24.6448 14.765 24.2091 14.6696 23.7738 14.6696C22.7757 14.6696 21.9234 15.43 21.7574 16.4967C21.6714 17.0288 21.7935 17.5376 22.0936 17.8924C22.3694 18.2186 22.7627 18.3546 23.2313 18.3546C24.0356 18.3546 24.4816 17.8344 24.4816 17.8344L24.4413 18.0869C24.4261 18.1834 24.5 18.27 24.5968 18.27H25.4102C25.539 18.27 25.6488 18.1756 25.6689 18.0472L26.1574 14.9376C26.1722 14.8419 26.0983 14.7551 26.0015 14.7551ZM24.7425 16.5233C24.6559 17.0424 24.2457 17.3908 23.7234 17.3908C23.4616 17.3908 23.2515 17.3062 23.1169 17.1459C22.9834 16.9866 22.9332 16.76 22.9751 16.5075C23.057 15.9929 23.4729 15.6331 23.9873 15.6331C24.2438 15.6331 24.4523 15.7188 24.5897 15.8806C24.7279 16.044 24.7825 16.272 24.7425 16.5233Z" fill="#179BD7"/>
<path d="M27.067 13.1337L26.2928 18.0879C26.2777 18.1839 26.3516 18.2704 26.4479 18.2704H27.2262C27.3555 18.2704 27.4653 18.1761 27.4852 18.0476L28.2486 13.1828C28.2638 13.0868 28.1898 13 28.0936 13H27.222C27.1451 13.0003 27.0789 13.0569 27.067 13.1337Z" fill="#179BD7"/>
</svg>
