<svg width="32" height="32" viewBox="0 0 32 32" fill="none" xmlns="http://www.w3.org/2000/svg">
<rect width="32" height="32" fill="white"/>
<path d="M28.1013 16.6546C28.1013 23.7345 22.3619 29.4739 15.282 29.4739C9.82158 29.4739 5.15853 26.0599 3.31096 21.2499C3.04872 21.1588 2.78075 21.1436 2.51277 21.2329C2.11946 21.364 1.97956 21.6781 2.00237 22.0906C4.14444 27.318 9.28323 31 15.282 31C23.2048 31 29.6275 24.5773 29.6275 16.6546C29.6275 8.7318 23.2048 2.30913 15.282 2.30913C12.2691 2.30913 9.47313 3.23796 7.16482 4.8249C7.31775 4.91286 7.50045 4.9891 7.70155 5.05613C8.02662 5.16449 8.22346 5.49724 8.37743 5.85168C10.3703 4.57528 12.7398 3.83524 15.282 3.83524C22.3619 3.83524 28.1013 9.57465 28.1013 16.6546Z" fill="black"/>
<path d="M11.8133 6.90376C11.9319 6.58406 11.7666 6.22909 11.4456 6.11405L8.50017 5.05847C8.37886 5.01499 8.31633 4.88089 8.361 4.76002L9.44567 1.82516C9.56388 1.50533 9.3982 1.15053 9.07709 1.03585C8.76117 0.923022 8.41327 1.08525 8.29663 1.39978L6.8042 5.42446C6.7442 5.58626 6.82797 5.76591 6.99049 5.82396L11.0329 7.26769C11.3488 7.38052 11.6967 7.21829 11.8133 6.90376Z" fill="black"/>
<path d="M28.1013 16.6546C28.1013 23.7345 22.3619 29.4739 15.282 29.4739C9.82158 29.4739 5.15853 26.0599 3.31096 21.2499C3.04872 21.1588 2.78075 21.1436 2.51277 21.2329C2.11946 21.364 1.97956 21.6781 2.00237 22.0906C4.14444 27.318 9.28323 31 15.282 31C23.2048 31 29.6275 24.5773 29.6275 16.6546C29.6275 8.7318 23.2048 2.30913 15.282 2.30913C12.2691 2.30913 9.47313 3.23796 7.16482 4.8249C7.31775 4.91286 7.50045 4.9891 7.70155 5.05613C8.02662 5.16449 8.22346 5.49724 8.37743 5.85168C10.3703 4.57528 12.7398 3.83524 15.282 3.83524C22.3619 3.83524 28.1013 9.57465 28.1013 16.6546Z" stroke="black" stroke-width="0.75"/>
<path d="M11.8133 6.90376C11.9319 6.58406 11.7666 6.22909 11.4456 6.11405L8.50017 5.05847C8.37886 5.01499 8.31633 4.88089 8.361 4.76002L9.44567 1.82516C9.56388 1.50533 9.3982 1.15053 9.07709 1.03585C8.76117 0.923022 8.41327 1.08525 8.29663 1.39978L6.8042 5.42446C6.7442 5.58626 6.82797 5.76591 6.99049 5.82396L11.0329 7.26769C11.3488 7.38052 11.6967 7.21829 11.8133 6.90376Z" stroke="black" stroke-width="0.75"/>
<path d="M15.0005 23.8687C14.9051 23.8687 14.8113 23.8436 14.7287 23.796L8.59533 20.3517C8.50901 20.3028 8.43714 20.232 8.38697 20.1465C8.3368 20.061 8.3101 19.9638 8.30957 19.8647V13.004C8.3101 12.9049 8.3368 12.8077 8.38697 12.7222C8.43714 12.6367 8.50901 12.5659 8.59533 12.517L14.7287 9.07271C14.8113 9.02508 14.9051 9 15.0005 9C15.0959 9 15.1897 9.02508 15.2723 9.07271L21.4056 12.517C21.4919 12.5659 21.5638 12.6367 21.614 12.7222C21.6642 12.8077 21.6909 12.9049 21.6914 13.004V19.8647C21.6909 19.9638 21.6642 20.061 21.614 20.1465C21.5638 20.232 21.4919 20.3028 21.4056 20.3517L15.2723 23.796C15.1897 23.8436 15.0959 23.8687 15.0005 23.8687ZM15.0005 23.8687V16.4343M21.6914 12.7172L15.0639 16.4343L8.30957 12.7172" stroke="black" stroke-width="2" stroke-linecap="round" stroke-linejoin="round"/>
</svg>
