<svg width="32" height="32" viewBox="0 0 32 32" fill="none" xmlns="http://www.w3.org/2000/svg">
<path fill-rule="evenodd" clip-rule="evenodd" d="M4.50725 9.36159V12.4158C4.50725 14.5458 5.47929 15.9438 6.56587 16.8618C7.61627 17.7493 8.76691 18.1777 9.21739 18.321C9.66787 18.1777 10.8185 17.7493 11.8689 16.8618C12.9555 15.9438 13.9275 14.5458 13.9275 12.4158V9.36159H4.50725ZM3.38727 8.19863C3.62544 7.97998 3.93679 7.86617 4.25033 7.86617H14.1845C14.498 7.86617 14.8093 7.97998 15.0475 8.19863C15.2877 8.41909 15.4348 8.73108 15.4348 9.06988V12.4158C15.4348 15.0738 14.1934 16.8621 12.8461 18.0004C11.5266 19.1152 10.0993 19.6167 9.60274 19.7684C9.35286 19.85 9.08193 19.85 8.83205 19.7684C8.33552 19.6167 6.90814 19.1152 5.58868 18.0004C4.24141 16.8621 3 15.0738 3 12.4158V9.06988C3 8.73108 3.14713 8.41909 3.38727 8.19863Z" fill="black"/>
<path fill-rule="evenodd" clip-rule="evenodd" d="M3.75362 8.88692C4.16984 8.88692 4.50725 9.22169 4.50725 9.63464V26.9328C4.50725 27.0361 4.5916 27.1198 4.69565 27.1198H27.3043C27.4084 27.1198 27.4928 27.0361 27.4928 26.9328V11.9785C27.4928 11.8753 27.4084 11.7916 27.3043 11.7916H14.671C14.2548 11.7916 13.9174 11.4569 13.9174 11.0439C13.9174 10.631 14.2548 10.2962 14.671 10.2962H27.3043C28.2408 10.2962 29 11.0494 29 11.9785V26.9328C29 27.862 28.2408 28.6152 27.3043 28.6152H4.69565C3.75917 28.6152 3 27.862 3 26.9328V9.63464C3 9.22169 3.33741 8.88692 3.75362 8.88692Z" fill="black"/>
<path fill-rule="evenodd" clip-rule="evenodd" d="M20.7101 24.1289C20.7101 23.7159 21.0476 23.3812 21.4638 23.3812H24.4783C24.8945 23.3812 25.2319 23.7159 25.2319 24.1289C25.2319 24.5418 24.8945 24.8766 24.4783 24.8766H21.4638C21.0476 24.8766 20.7101 24.5418 20.7101 24.1289Z" fill="black"/>
<path fill-rule="evenodd" clip-rule="evenodd" d="M12.9855 16.6445C12.9855 16.2316 13.3229 15.8968 13.7391 15.8968L28.2361 15.8968C28.6523 15.8968 28.9897 16.2316 28.9897 16.6445C28.9897 17.0575 28.6523 17.3922 28.2361 17.3922L13.7391 17.3922C13.3229 17.3922 12.9855 17.0575 12.9855 16.6445Z" fill="black"/>
<path fill-rule="evenodd" clip-rule="evenodd" d="M5.38991 5.43643C6.06215 4.27983 7.27909 3.37988 9.2174 3.37988C11.1557 3.37988 12.3726 4.27983 13.0449 5.43643C13.686 6.5394 13.808 7.82466 13.7365 8.67597L12.2345 8.55178C12.2886 7.90767 12.1846 6.94979 11.7392 6.18348C11.325 5.47079 10.595 4.87531 9.2174 4.87531C7.83976 4.87531 7.10984 5.47079 6.69561 6.18348C6.25021 6.94979 6.1462 7.90767 6.2003 8.55178L4.69826 8.67597C4.62676 7.82466 4.74883 6.5394 5.38991 5.43643Z" fill="black"/>
<path d="M4.50725 9.36159V9.11159C4.36918 9.11159 4.25725 9.22352 4.25725 9.36159H4.50725ZM6.56587 16.8618L6.40453 17.0528L6.56587 16.8618ZM9.21739 18.321L9.14158 18.5593C9.1909 18.575 9.24388 18.575 9.2932 18.5593L9.21739 18.321ZM11.8689 16.8618L11.7076 16.6709L11.8689 16.8618ZM13.9275 9.36159H14.1775C14.1775 9.22352 14.0656 9.11159 13.9275 9.11159V9.36159ZM3.38727 8.19863L3.2182 8.01447H3.2182L3.38727 8.19863ZM15.0475 8.19863L15.2166 8.01447L15.0475 8.19863ZM12.8461 18.0004L13.0074 18.1914L12.8461 18.0004ZM9.60274 19.7684L9.52967 19.5293L9.52515 19.5307L9.60274 19.7684ZM8.83205 19.7684L8.90965 19.5307L8.9051 19.5293L8.83205 19.7684ZM5.58868 18.0004L5.42734 18.1914L5.58868 18.0004ZM13.7391 15.8968V15.6468V15.8968ZM28.2361 15.8968V16.1468V15.8968ZM28.2361 17.3922V17.1422V17.3922ZM13.7391 17.3922V17.6422V17.3922ZM5.38991 5.43643L5.17377 5.3108L5.38991 5.43643ZM13.0449 5.43643L13.261 5.3108V5.3108L13.0449 5.43643ZM13.7365 8.67597L13.7159 8.92512L13.9648 8.9457L13.9857 8.6969L13.7365 8.67597ZM12.2345 8.55178L11.9854 8.53086L11.9644 8.78031L12.2139 8.80093L12.2345 8.55178ZM11.7392 6.18348L11.523 6.3091V6.3091L11.7392 6.18348ZM6.69561 6.18348L6.47947 6.05785L6.69561 6.18348ZM6.2003 8.55178L6.2209 8.80093L6.47037 8.78031L6.44942 8.53086L6.2003 8.55178ZM4.69826 8.67597L4.44914 8.6969L4.47003 8.9457L4.71886 8.92512L4.69826 8.67597ZM4.75725 12.4158V9.36159H4.25725V12.4158H4.75725ZM6.72722 16.6709C5.68399 15.7895 4.75725 14.4569 4.75725 12.4158H4.25725C4.25725 14.6347 5.27458 16.0981 6.40453 17.0528L6.72722 16.6709ZM9.2932 18.0828C8.85824 17.9444 7.74233 17.5285 6.72722 16.6709L6.40453 17.0528C7.49021 17.9701 8.67558 18.411 9.14158 18.5593L9.2932 18.0828ZM11.7076 16.6709C10.6925 17.5285 9.57654 17.9444 9.14158 18.0828L9.2932 18.5593C9.75921 18.411 10.9446 17.9701 12.0303 17.0528L11.7076 16.6709ZM13.6775 12.4158C13.6775 14.4569 12.7508 15.7895 11.7076 16.6709L12.0303 17.0528C13.1602 16.0981 14.1775 14.6347 14.1775 12.4158H13.6775ZM13.6775 9.36159V12.4158H14.1775V9.36159H13.6775ZM4.50725 9.61159H13.9275V9.11159H4.50725V9.61159ZM4.25033 7.61617C3.87714 7.61617 3.50463 7.75151 3.2182 8.01447L3.55634 8.38279C3.74625 8.20845 3.99643 8.11617 4.25033 8.11617V7.61617ZM14.1845 7.61617H4.25033V8.11617H14.1845V7.61617ZM15.2166 8.01447C14.9302 7.75151 14.5576 7.61617 14.1845 7.61617V8.11617C14.4383 8.11617 14.6885 8.20844 14.8784 8.38279L15.2166 8.01447ZM15.6848 9.06988C15.6848 8.65741 15.5055 8.27974 15.2166 8.01447L14.8784 8.38279C15.0698 8.55844 15.1848 8.80475 15.1848 9.06988H15.6848ZM15.6848 12.4158V9.06988H15.1848V12.4158H15.6848ZM13.0074 18.1914C14.3979 17.0166 15.6848 15.163 15.6848 12.4158H15.1848C15.1848 14.9847 13.9889 16.7076 12.6848 17.8094L13.0074 18.1914ZM9.67579 20.0075C10.1878 19.851 11.6514 19.3371 13.0074 18.1914L12.6848 17.8094C11.4019 18.8933 10.0108 19.3823 9.52969 19.5293L9.67579 20.0075ZM8.75446 20.0061C9.05476 20.1041 9.38003 20.1041 9.68033 20.0061L9.52515 19.5307C9.32568 19.5959 9.10911 19.5959 8.90964 19.5307L8.75446 20.0061ZM5.42734 18.1914C6.78343 19.3371 8.247 19.8511 8.759 20.0075L8.9051 19.5293C8.42403 19.3823 7.03286 18.8933 5.75002 17.8094L5.42734 18.1914ZM2.75 12.4158C2.75 15.163 4.03692 17.0166 5.42734 18.1914L5.75002 17.8094C4.4459 16.7076 3.25 14.9847 3.25 12.4158H2.75ZM2.75 9.06988V12.4158H3.25V9.06988H2.75ZM3.2182 8.01447C2.92925 8.27974 2.75 8.65741 2.75 9.06988H3.25C3.25 8.80475 3.36502 8.55843 3.55634 8.38279L3.2182 8.01447ZM4.75725 9.63464C4.75725 9.08176 4.30605 8.63692 3.75362 8.63692V9.13692C4.03363 9.13692 4.25725 9.36161 4.25725 9.63464H4.75725ZM4.75725 26.9328V9.63464H4.25725V26.9328H4.75725ZM4.69565 26.8698C4.72781 26.8698 4.75725 26.8961 4.75725 26.9328H4.25725C4.25725 27.176 4.45538 27.3698 4.69565 27.3698V26.8698ZM27.3043 26.8698H4.69565V27.3698H27.3043V26.8698ZM27.2428 26.9328C27.2428 26.8961 27.2722 26.8698 27.3043 26.8698V27.3698C27.5446 27.3698 27.7428 27.176 27.7428 26.9328H27.2428ZM27.2428 11.9785V26.9328H27.7428V11.9785H27.2428ZM27.3043 12.0416C27.2722 12.0416 27.2428 12.0152 27.2428 11.9785H27.7428C27.7428 11.7354 27.5446 11.5416 27.3043 11.5416V12.0416ZM14.671 12.0416H27.3043V11.5416H14.671V12.0416ZM13.6674 11.0439C13.6674 11.5968 14.1186 12.0416 14.671 12.0416V11.5416C14.391 11.5416 14.1674 11.3169 14.1674 11.0439H13.6674ZM14.671 10.0462C14.1186 10.0462 13.6674 10.491 13.6674 11.0439H14.1674C14.1674 10.7709 14.391 10.5462 14.671 10.5462V10.0462ZM27.3043 10.0462H14.671V10.5462H27.3043V10.0462ZM29.25 11.9785C29.25 10.9095 28.377 10.0462 27.3043 10.0462V10.5462C28.1046 10.5462 28.75 11.1893 28.75 11.9785H29.25ZM29.25 26.9328V11.9785H28.75V26.9328H29.25ZM27.3043 28.8652C28.377 28.8652 29.25 28.0019 29.25 26.9328H28.75C28.75 27.722 28.1046 28.3652 27.3043 28.3652V28.8652ZM4.69565 28.8652H27.3043V28.3652H4.69565V28.8652ZM2.75 26.9328C2.75 28.0019 3.62296 28.8652 4.69565 28.8652V28.3652C3.89538 28.3652 3.25 27.722 3.25 26.9328H2.75ZM2.75 9.63464V26.9328H3.25V9.63464H2.75ZM3.75362 8.63692C3.2012 8.63692 2.75 9.08176 2.75 9.63464H3.25C3.25 9.36161 3.47362 9.13692 3.75362 9.13692V8.63692ZM21.4638 23.1312C20.9113 23.1312 20.4601 23.576 20.4601 24.1289H20.9601C20.9601 23.8559 21.1838 23.6312 21.4638 23.6312V23.1312ZM24.4783 23.1312H21.4638V23.6312H24.4783V23.1312ZM25.4819 24.1289C25.4819 23.576 25.0307 23.1312 24.4783 23.1312V23.6312C24.7583 23.6312 24.9819 23.8559 24.9819 24.1289H25.4819ZM24.4783 25.1266C25.0307 25.1266 25.4819 24.6818 25.4819 24.1289H24.9819C24.9819 24.4019 24.7583 24.6266 24.4783 24.6266V25.1266ZM21.4638 25.1266H24.4783V24.6266H21.4638V25.1266ZM20.4601 24.1289C20.4601 24.6818 20.9113 25.1266 21.4638 25.1266V24.6266C21.1838 24.6266 20.9601 24.4019 20.9601 24.1289H20.4601ZM13.7391 15.6468C13.1867 15.6468 12.7355 16.0916 12.7355 16.6445H13.2355C13.2355 16.3715 13.4591 16.1468 13.7391 16.1468V15.6468ZM29.2397 16.6445C29.2397 16.0916 28.7885 15.6468 28.2361 15.6468V16.1468C28.5161 16.1468 28.7397 16.3715 28.7397 16.6445H29.2397ZM28.2361 17.6422C28.7885 17.6422 29.2397 17.1974 29.2397 16.6445H28.7397C28.7397 16.9175 28.5161 17.1422 28.2361 17.1422V17.6422ZM12.7355 16.6445C12.7355 17.1974 13.1867 17.6422 13.7391 17.6422V17.1422C13.4591 17.1422 13.2355 16.9175 13.2355 16.6445H12.7355ZM28.2361 15.6468L13.7391 15.6468V16.1468L28.2361 16.1468V15.6468ZM13.7391 17.6422L28.2361 17.6422V17.1422L13.7391 17.1422V17.6422ZM9.2174 3.12988C7.18698 3.12988 5.88921 4.07988 5.17377 5.3108L5.60605 5.56206C6.2351 4.47978 7.37119 3.62988 9.2174 3.62988V3.12988ZM13.261 5.3108C12.5456 4.07988 11.2478 3.12988 9.2174 3.12988V3.62988C11.0636 3.62988 12.1997 4.47978 12.8287 5.56206L13.261 5.3108ZM13.9857 8.6969C14.0601 7.81067 13.935 6.4703 13.261 5.3108L12.8287 5.56206C13.437 6.6085 13.556 7.83865 13.4874 8.65505L13.9857 8.6969ZM12.2139 8.80093L13.7159 8.92512L13.7571 8.42682L12.2551 8.30264L12.2139 8.80093ZM11.523 6.3091C11.9356 7.01898 12.0365 7.9218 11.9854 8.53086L12.4836 8.57271C12.5407 7.89354 12.4335 6.8806 11.9553 6.05785L11.523 6.3091ZM9.2174 5.12531C9.86917 5.12531 10.351 5.2658 10.7133 5.47788C11.0756 5.69003 11.3332 5.98251 11.523 6.3091L11.9553 6.05785C11.7309 5.67176 11.4164 5.31015 10.9659 5.04639C10.5152 4.78256 9.94325 4.62531 9.2174 4.62531V5.12531ZM6.91175 6.3091C7.10158 5.98251 7.35915 5.69003 7.72153 5.47788C8.0838 5.2658 8.56562 5.12531 9.2174 5.12531V4.62531C8.49154 4.62531 7.91959 4.78256 7.46892 5.04639C7.01837 5.31015 6.70387 5.67176 6.47947 6.05785L6.91175 6.3091ZM6.44942 8.53086C6.39827 7.9218 6.49916 7.01898 6.91175 6.3091L6.47947 6.05785C6.00126 6.8806 5.89413 7.89354 5.95118 8.57271L6.44942 8.53086ZM4.71886 8.92512L6.2209 8.80093L6.1797 8.30264L4.67766 8.42682L4.71886 8.92512ZM5.17377 5.3108C4.49984 6.4703 4.3747 7.81067 4.44914 8.6969L4.94738 8.65505C4.87881 7.83865 4.99783 6.6085 5.60605 5.56206L5.17377 5.3108Z" fill="black"/>
<path fill-rule="evenodd" clip-rule="evenodd" d="M11.9614 11.0306C12.2811 11.2951 12.3241 11.7666 12.0576 12.0837L9.5441 15.0746C9.40084 15.2451 9.18867 15.3436 8.96497 15.3435C8.74127 15.3434 8.52918 15.2447 8.38607 15.0741L7.13145 13.5787C6.86518 13.2613 6.90865 12.7898 7.22854 12.5257C7.54843 12.2615 8.02362 12.3046 8.28989 12.622L8.96578 13.4276L10.9 11.1261C11.1665 10.8089 11.6417 10.7662 11.9614 11.0306Z" fill="black"/>
</svg>
