<svg width="32" height="32" viewBox="0 0 32 32" fill="none" xmlns="http://www.w3.org/2000/svg">
<rect y="5" width="32" height="22" rx="2" fill="#1434CB"/>
<path d="M14.3992 19.392H12.4551L13.6711 12.1318H15.6152L14.3992 19.392Z" fill="white"/>
<path d="M21.4472 12.3091C21.0637 12.1622 20.4555 12 19.7034 12C17.7835 12 16.4315 12.9886 16.4232 14.4019C16.4073 15.4447 17.3912 16.0239 18.1271 16.3716C18.8793 16.7269 19.135 16.9588 19.135 17.2755C19.1273 17.7618 18.5272 17.986 17.9674 17.986C17.1912 17.986 16.7753 17.8704 16.1433 17.5998L15.8873 17.4838L15.6152 19.1136C16.0712 19.3142 16.9113 19.4922 17.7835 19.5C19.8235 19.5 21.1515 18.5267 21.1673 17.0206C21.175 16.1941 20.6555 15.5608 19.5354 15.0433C18.8554 14.7111 18.4389 14.4871 18.4389 14.1472C18.4469 13.8382 18.7912 13.5218 19.5587 13.5218C20.1908 13.5063 20.6552 13.653 21.007 13.7998L21.1828 13.8768L21.4472 12.3091Z" fill="white"/>
<path d="M24.0314 16.82C24.1915 16.4029 24.8076 14.7887 24.8076 14.7887C24.7995 14.8042 24.9674 14.3639 25.0634 14.0936L25.1992 14.7192C25.1992 14.7192 25.5674 16.457 25.6474 16.82C25.3435 16.82 24.4154 16.82 24.0314 16.82ZM26.4312 12.1318H24.9274C24.4637 12.1318 24.1113 12.263 23.9112 12.7342L21.0234 19.3919H23.0634C23.0634 19.3919 23.3992 18.4959 23.4714 18.3029C23.6952 18.3029 25.6797 18.3029 25.9676 18.3029C26.0234 18.5578 26.1996 19.3919 26.1996 19.3919H27.9997L26.4312 12.1318Z" fill="white"/>
<path d="M10.8312 12.1318L8.92725 17.0826L8.71919 16.0785C8.36718 14.92 7.26322 13.6612 6.03125 13.0353L7.77523 19.3843H9.83113L12.887 12.1318H10.8312Z" fill="white"/>
<path d="M7.15998 12.1318H4.032L4 12.2785C6.44002 12.881 8.05599 14.3333 8.71992 16.0788L8.03994 12.7421C7.92799 12.2784 7.58396 12.1471 7.15998 12.1318Z" fill="white"/>
</svg>
